<svg height="28" width="137" xmlns="http://www.w3.org/2000/svg" viewBox="0 0 619.92 240.86"><defs><style>.cls-1{fill:#222226;}.cls-2{fill:#00e486;}.cls-3{fill:#a4fcf5;}.cls-4{fill:#cfc3fb;}.cls-5{fill:#cbaaf7;}.cls-6{fill:#80a4f8;}.cls-7{fill:#cdaefb;}.cls-8{fill:#82a9f9;}</style></defs><title>ENULS-BLACK</title><g id="图层_2" data-name="图层 2"><g id="图层_1-2" data-name="图层 1"><path class="cls-1" d="M615.54,123.71a31,31,0,0,0-11.5-8.3,74.06,74.06,0,0,0-23-5.71c-2.84-.3-5.76-.52-8.35-1.81a9.11,9.11,0,0,1-3.87-3.56c-2.76-4.79.65-9.25,4.92-10.72a24.12,24.12,0,0,1,7.92-1s12.29,0,12.29,13.16l24.52-.11c0-31.1-36.81-31.09-36.81-31.09-9.14,0-19,1.48-26.64,7.37A26.6,26.6,0,0,0,545.34,98c-1.3,6.78-.39,14.11,4,19.49a30,30,0,0,0,10.41,7.88c7,3.44,14.78,5,22.49,5.82,2.86.3,5.8.52,8.4,1.8a9.3,9.3,0,0,1,3.91,3.57c2.78,4.8-.65,9.27-4.92,10.73a24.12,24.12,0,0,1-7.92,1s-12.28,0-12.28-13.15l-26,.1c0,31.07,38.24,31.09,38.32,31.09,7,0,14.11-.87,20.6-3.69a28.79,28.79,0,0,0,15.71-16C620.89,139.05,620.82,130.2,615.54,123.71Z"/><path class="cls-1" d="M431.09,81.32V130a12.79,12.79,0,0,1-12.79,12.76h0A12.78,12.78,0,0,1,405.54,130V81.31a5.83,5.83,0,0,0-5.84-5.83H379.93v57.39c0,21.19,17.18,32.52,38.37,32.52h0c21.19,0,38.36-11.33,38.36-32.52V75.48H436.93a5.83,5.83,0,0,0-5.84,5.82Z"/><path class="cls-1" d="M283.44,163.87V75.48h17.1a5.87,5.87,0,0,1,4.63,2.27l29.42,42V81.32a5.83,5.83,0,0,1,5.84-5.84h19.74v88.39H343a5.85,5.85,0,0,1-4.6-2.24L309,120.45v43.42Z"/><path class="cls-1" d="M476.42,163.89V75.48h19.73A5.83,5.83,0,0,1,502,81.31h0v62.6h31.43v20Z"/><path class="cls-1" d="M263.43,95.45V81.28a5.83,5.83,0,0,0-5.83-5.83H199.42v88.41l64,0V149.73a5.84,5.84,0,0,0-5.83-5.84H225V128.65l38.43,0V116.5a5.84,5.84,0,0,0-5.83-5.83H225V95.44Z"/><path class="cls-2" d="M72.63,198.74v42.12l-19.85-8.59v-.05L0,209.29V60.41A16.32,16.32,0,0,1,16.3,44.07h3.56L56.43,95,44.8,114.27,19.86,79.6V197.39l32.92,14.36v-41Z"/><path class="cls-2" d="M144.52,31.6V169.22a16.32,16.32,0,0,1-16.3,16.33h-3.56L95,167.19,106.51,151l18.15,11V43.43l-32.17-14V101L73.06,68.8l-.42-.7V0Z"/><path class="cls-3" d="M72.63,92.29l-.57,1.88v54.38l.57.56,25.26-14.93Z"/><path class="cls-4" d="M72.63,92.29,47.38,134.18l25.25,14.93Z"/><path class="cls-5" d="M72.63,153.88l-.31.39v19.37l.31.91L97.89,139Z"/><path class="cls-6" d="M72.63,174.54V153.88L47.38,139Z"/><path class="cls-7" d="M72.63,149.11l25.26-14.93L72.63,122.71Z"/><path class="cls-8" d="M47.38,134.18l25.25,14.93v-26.4Z"/></g></g></svg>